<svg width="21" height="12" viewBox="0 0 21 12" fill="none" xmlns="http://www.w3.org/2000/svg">
<path d="M9.47229 11.4181C1.90469 6.89263 0.5 6.42818 0.5 4.76501C0.5 2.48683 4.97713 0.640015 10.5 0.640015C16.0229 0.640015 20.5 2.48683 20.5 4.76501C20.5 6.42818 19.0953 6.89263 11.5277 11.4181C11.0311 11.714 9.96885 11.714 9.47229 11.4181ZM10.5 6.48376C12.8012 6.48376 14.6667 5.71426 14.6667 4.76501C14.6667 3.81577 12.8012 3.04626 10.5 3.04626C8.1988 3.04626 6.33333 3.81577 6.33333 4.76501C6.33333 5.71426 8.1988 6.48376 10.5 6.48376Z" fill="#D9D9D9"/>
</svg>
