<svg width="20" height="14" viewBox="0 0 20 14" fill="none" xmlns="http://www.w3.org/2000/svg">
<path d="M19.4296 9.62498L15.0546 8.40621C14.8677 8.35444 14.6599 8.34353 14.4627 8.37512C14.2654 8.40672 14.0893 8.47912 13.9608 8.58141L12.0233 10.1201C8.98248 9.1882 6.53535 7.59757 5.10165 5.62106L7.46888 4.36167C7.62657 4.2783 7.73818 4.16381 7.78681 4.03553C7.83545 3.90725 7.81846 3.77216 7.73841 3.65072L5.86338 0.806915C5.77553 0.676001 5.62016 0.569114 5.42406 0.504685C5.22796 0.440256 5.00341 0.422323 4.78914 0.453979L0.726575 1.06336C0.519997 1.09437 0.335687 1.16998 0.203728 1.27784C0.0717689 1.3857 -4.75871e-05 1.51945 2.36575e-08 1.65726C2.36575e-08 8.17007 8.12123 13.4387 18.1253 13.4387C18.3374 13.4388 18.5433 13.3922 18.7093 13.3064C18.8753 13.2206 18.9917 13.1008 19.0394 12.9664L19.9769 10.3258C20.0253 10.1858 19.9971 10.0393 19.8972 9.91138C19.7973 9.78347 19.632 9.6822 19.4296 9.62498Z" fill="#D9D9D9"/>
</svg>
