<svg width="20" height="12" viewBox="0 0 20 12" fill="none" xmlns="http://www.w3.org/2000/svg">
<path d="M6.875 4.7039H13.125C13.4703 4.7039 13.75 4.55007 13.75 4.36015V4.0164C13.75 3.82648 13.4703 3.67265 13.125 3.67265H6.875C6.52969 3.67265 6.25 3.82648 6.25 4.0164V4.36015C6.25 4.55007 6.52969 4.7039 6.875 4.7039ZM6.25 6.42263C6.25 6.61256 6.52969 6.76638 6.875 6.76638H13.125C13.4703 6.76638 13.75 6.61256 13.75 6.42263V6.07889C13.75 5.88897 13.4703 5.73514 13.125 5.73514H6.875C6.52969 5.73514 6.25 5.88897 6.25 6.07889V6.42263ZM10 9.02502C9.35859 9.02502 8.71719 8.91631 8.16953 8.69868L0 5.45284V10.032C0 10.6015 0.839453 11.0632 1.875 11.0632H18.125C19.1605 11.0632 20 10.6015 20 10.032V5.45284L11.8305 8.69868C11.2828 8.9161 10.6414 9.02502 10 9.02502ZM19.2816 3.56416C18.9359 3.41506 18.6082 3.27476 18.125 3.0741V2.12579C18.125 1.55624 17.2855 1.09454 16.25 1.09454H13.2207C13.102 1.04728 12.9914 1.00302 12.8676 0.953606C12.2109 0.689994 10.9063 0.0557792 10 0.0632987C9.09375 0.0557792 7.78945 0.689994 7.13242 0.953606C7.00859 1.00302 6.89805 1.04728 6.7793 1.09454H3.75C2.71445 1.09454 1.875 1.55624 1.875 2.12579V3.0741C1.3918 3.27455 1.06406 3.41506 0.718359 3.56416C0.494593 3.66061 0.313639 3.78378 0.189185 3.92436C0.0647315 4.06495 3.8508e-05 4.21926 0 4.37562L0 4.60442L3.75 6.09436V2.12579H16.25V6.09436L20 4.60442V4.37562C20 4.05894 19.7352 3.75966 19.2816 3.56416Z" fill="#D9D9D9"/>
</svg>
