<svg width="20" height="12" viewBox="0 0 20 12" fill="none" xmlns="http://www.w3.org/2000/svg">
<path d="M8.97229 10.8413C1.40469 6.31585 0 5.8514 0 4.18823C0 1.91005 4.47713 0.0632324 10 0.0632324C15.5229 0.0632324 20 1.91005 20 4.18823C20 5.8514 18.5953 6.31585 11.0277 10.8413C10.5311 11.1372 9.46885 11.1372 8.97229 10.8413ZM10 5.90698C12.3012 5.90698 14.1667 5.13747 14.1667 4.18823C14.1667 3.23899 12.3012 2.46948 10 2.46948C7.6988 2.46948 5.83333 3.23899 5.83333 4.18823C5.83333 5.13747 7.6988 5.90698 10 5.90698Z" fill="#D9D9D9"/>
</svg>
