<svg width="21" height="11" viewBox="0 0 21 11" fill="none" xmlns="http://www.w3.org/2000/svg">
<path d="M9.47229 10.7781C1.90469 6.25262 0.5 5.78817 0.5 4.125C0.5 1.84682 4.97713 0 10.5 0C16.0229 0 20.5 1.84682 20.5 4.125C20.5 5.78817 19.0953 6.25262 11.5277 10.7781C11.0311 11.074 9.96885 11.074 9.47229 10.7781ZM10.5 5.84375C12.8012 5.84375 14.6667 5.07424 14.6667 4.125C14.6667 3.17575 12.8012 2.40625 10.5 2.40625C8.1988 2.40625 6.33333 3.17575 6.33333 4.125C6.33333 5.07424 8.1988 5.84375 10.5 5.84375Z" fill="#D9D9D9"/>
</svg>
