<svg width="21" height="12" viewBox="0 0 21 12" fill="none" xmlns="http://www.w3.org/2000/svg">
<path d="M7.375 5.58524H13.625C13.9703 5.58524 14.25 5.43142 14.25 5.24149V4.89775C14.25 4.70783 13.9703 4.554 13.625 4.554H7.375C7.02969 4.554 6.75 4.70783 6.75 4.89775V5.24149C6.75 5.43142 7.02969 5.58524 7.375 5.58524ZM6.75 7.30398C6.75 7.4939 7.02969 7.64773 7.375 7.64773H13.625C13.9703 7.64773 14.25 7.4939 14.25 7.30398V6.96023C14.25 6.77031 13.9703 6.61649 13.625 6.61649H7.375C7.02969 6.61649 6.75 6.77031 6.75 6.96023V7.30398ZM10.5 9.90637C9.85859 9.90637 9.21719 9.79766 8.66953 9.58002L0.5 6.33418V10.9133C0.5 11.4829 1.33945 11.9446 2.375 11.9446H18.625C19.6605 11.9446 20.5 11.4829 20.5 10.9133V6.33418L12.3305 9.58002C11.7828 9.79744 11.1414 9.90637 10.5 9.90637ZM19.7816 4.4455C19.4359 4.2964 19.1082 4.15611 18.625 3.95545V3.00713C18.625 2.43759 17.7855 1.97589 16.75 1.97589H13.7207C13.602 1.92862 13.4914 1.88437 13.3676 1.83495C12.7109 1.57134 11.4063 0.937127 10.5 0.944646C9.59375 0.937127 8.28945 1.57134 7.63242 1.83495C7.50859 1.88437 7.39805 1.92862 7.2793 1.97589H4.25C3.21445 1.97589 2.375 2.43759 2.375 3.00713V3.95545C1.8918 4.1559 1.56406 4.2964 1.21836 4.4455C0.994593 4.54195 0.813639 4.66513 0.689185 4.80571C0.564732 4.94629 0.500039 5.1006 0.5 5.25696L0.5 5.48577L4.25 6.9757V3.00713H16.75V6.9757L20.5 5.48577V5.25696C20.5 4.94029 20.2352 4.64101 19.7816 4.4455Z" fill="#D9D9D9"/>
</svg>
