<svg width="21" height="12" viewBox="0 0 21 12" fill="none" xmlns="http://www.w3.org/2000/svg">
<path d="M9.47229 11.7226C1.90469 7.1972 0.5 6.73275 0.5 5.06958C0.5 2.7914 4.97713 0.94458 10.5 0.94458C16.0229 0.94458 20.5 2.7914 20.5 5.06958C20.5 6.73275 19.0953 7.1972 11.5277 11.7226C11.0311 12.0186 9.96885 12.0185 9.47229 11.7226ZM10.5 6.78833C12.8012 6.78833 14.6667 6.01882 14.6667 5.06958C14.6667 4.12033 12.8012 3.35083 10.5 3.35083C8.1988 3.35083 6.33333 4.12033 6.33333 5.06958C6.33333 6.01882 8.1988 6.78833 10.5 6.78833Z" fill="#D9D9D9"/>
</svg>
