<svg width="20" height="12" viewBox="0 0 20 12" fill="none" xmlns="http://www.w3.org/2000/svg">
<path d="M8.97229 11.2168C1.40469 6.69134 0 6.22689 0 4.56372C0 2.28554 4.47713 0.438721 10 0.438721C15.5229 0.438721 20 2.28554 20 4.56372C20 6.22689 18.5953 6.69134 11.0277 11.2168C10.5311 11.5127 9.46885 11.5127 8.97229 11.2168ZM10 6.28247C12.3012 6.28247 14.1667 5.51296 14.1667 4.56372C14.1667 3.61448 12.3012 2.84497 10 2.84497C7.6988 2.84497 5.83333 3.61448 5.83333 4.56372C5.83333 5.51296 7.6988 6.28247 10 6.28247Z" fill="#D9D9D9"/>
</svg>
