<svg width="22" height="20" viewBox="0 0 22 20" fill="none" xmlns="http://www.w3.org/2000/svg">
<path d="M0.90625 3.94531H21.2188C21.6502 3.94531 22 3.59556 22 3.16406V1.21094C22 0.779443 21.6502 0.429688 21.2188 0.429688H0.90625C0.474756 0.429688 0.125 0.779443 0.125 1.21094V3.16406C0.125 3.59556 0.474756 3.94531 0.90625 3.94531ZM0.90625 11.7578H21.2188C21.6502 11.7578 22 11.4081 22 10.9766V9.02344C22 8.59194 21.6502 8.24219 21.2188 8.24219H0.90625C0.474756 8.24219 0.125 8.59194 0.125 9.02344V10.9766C0.125 11.4081 0.474756 11.7578 0.90625 11.7578ZM0.90625 19.5703H21.2188C21.6502 19.5703 22 19.2206 22 18.7891V16.8359C22 16.4044 21.6502 16.0547 21.2188 16.0547H0.90625C0.474756 16.0547 0.125 16.4044 0.125 16.8359V18.7891C0.125 19.2206 0.474756 19.5703 0.90625 19.5703Z" fill="black"/>
</svg>
