<svg width="20" height="14" viewBox="0 0 20 14" fill="none" xmlns="http://www.w3.org/2000/svg">
<path d="M19.4296 9.24949L15.0546 8.03072C14.8677 7.97895 14.6599 7.96804 14.4627 7.99964C14.2654 8.03123 14.0893 8.10363 13.9608 8.20592L12.0233 9.74462C8.98248 8.81272 6.53535 7.22208 5.10165 5.24557L7.46888 3.98618C7.62657 3.90281 7.73818 3.78832 7.78681 3.66004C7.83545 3.53176 7.81846 3.39667 7.73841 3.27523L5.86338 0.431427C5.77553 0.300512 5.62016 0.193625 5.42406 0.129196C5.22796 0.0647674 5.00341 0.0468347 4.78914 0.0784907L0.726575 0.687877C0.519997 0.718884 0.335687 0.794488 0.203728 0.902351C0.0717689 1.01021 -4.75871e-05 1.14396 2.36575e-08 1.28177C2.36575e-08 7.79458 8.12123 13.0632 18.1253 13.0632C18.3374 13.0633 18.5433 13.0167 18.7093 12.9309C18.8753 12.8451 18.9917 12.7253 19.0394 12.591L19.9769 9.95029C20.0253 9.81034 19.9971 9.6638 19.8972 9.53589C19.7973 9.40799 19.632 9.30671 19.4296 9.24949Z" fill="#D9D9D9"/>
</svg>
