<svg width="21" height="12" viewBox="0 0 21 12" fill="none" xmlns="http://www.w3.org/2000/svg">
<path d="M7.375 5.28068H13.625C13.9703 5.28068 14.25 5.12685 14.25 4.93693V4.59318C14.25 4.40326 13.9703 4.24943 13.625 4.24943H7.375C7.02969 4.24943 6.75 4.40326 6.75 4.59318V4.93693C6.75 5.12685 7.02969 5.28068 7.375 5.28068ZM6.75 6.99942C6.75 7.18934 7.02969 7.34316 7.375 7.34316H13.625C13.9703 7.34316 14.25 7.18934 14.25 6.99942V6.65567C14.25 6.46575 13.9703 6.31192 13.625 6.31192H7.375C7.02969 6.31192 6.75 6.46575 6.75 6.65567V6.99942ZM10.5 9.6018C9.85859 9.6018 9.21719 9.49309 8.66953 9.27546L0.5 6.02962V10.6088C0.5 11.1783 1.33945 11.64 2.375 11.64H18.625C19.6605 11.64 20.5 11.1783 20.5 10.6088V6.02962L12.3305 9.27546C11.7828 9.49288 11.1414 9.6018 10.5 9.6018ZM19.7816 4.14094C19.4359 3.99184 19.1082 3.85155 18.625 3.65088V2.70257C18.625 2.13302 17.7855 1.67132 16.75 1.67132H13.7207C13.602 1.62406 13.4914 1.5798 13.3676 1.53039C12.7109 1.26678 11.4063 0.632561 10.5 0.640081C9.59375 0.632561 8.28945 1.26678 7.63242 1.53039C7.50859 1.5798 7.39805 1.62406 7.2793 1.67132H4.25C3.21445 1.67132 2.375 2.13302 2.375 2.70257V3.65088C1.8918 3.85133 1.56406 3.99184 1.21836 4.14094C0.994593 4.23739 0.813639 4.36056 0.689185 4.50115C0.564732 4.64173 0.500039 4.79604 0.5 4.9524L0.5 5.18121L4.25 6.67114V2.70257H16.75V6.67114L20.5 5.18121V4.9524C20.5 4.63572 20.2352 4.33645 19.7816 4.14094Z" fill="#D9D9D9"/>
</svg>
