<svg width="21" height="14" viewBox="0 0 21 14" fill="none" xmlns="http://www.w3.org/2000/svg">
<path d="M19.9296 9.82628L15.5546 8.6075C15.3677 8.55573 15.1599 8.54482 14.9627 8.57642C14.7654 8.60802 14.5893 8.68041 14.4608 8.7827L12.5233 10.3214C9.48248 9.3895 7.03535 7.79886 5.60165 5.82236L7.96888 4.56296C8.12657 4.4796 8.23818 4.36511 8.28681 4.23682C8.33545 4.10854 8.31846 3.97345 8.23841 3.85201L6.36338 1.00821C6.27553 0.877295 6.12016 0.770408 5.92406 0.705979C5.72796 0.64155 5.50341 0.623617 5.28914 0.655273L1.22658 1.26466C1.02 1.29567 0.835687 1.37127 0.703728 1.47913C0.571769 1.587 0.499952 1.72075 0.5 1.85856C0.5 8.37137 8.62123 13.64 18.6253 13.64C18.8374 13.6401 19.0433 13.5934 19.2093 13.5077C19.3753 13.4219 19.4917 13.3021 19.5394 13.1677L20.4769 10.5271C20.5253 10.3871 20.4971 10.2406 20.3972 10.1127C20.2973 9.98477 20.132 9.88349 19.9296 9.82628Z" fill="#D9D9D9"/>
</svg>
