<svg width="21" height="14" viewBox="0 0 21 14" fill="none" xmlns="http://www.w3.org/2000/svg">
<path d="M19.9296 10.1308L15.5546 8.91207C15.3677 8.8603 15.1599 8.84939 14.9627 8.88098C14.7654 8.91258 14.5893 8.98498 14.4608 9.08727L12.5233 10.626C9.48248 9.69406 7.03535 8.10343 5.60165 6.12692L7.96888 4.86753C8.12657 4.78416 8.23818 4.66967 8.28681 4.54139C8.33545 4.41311 8.31846 4.27802 8.23841 4.15657L6.36338 1.31277C6.27553 1.18186 6.12016 1.07497 5.92406 1.01054C5.72796 0.946115 5.50341 0.928182 5.28914 0.959838L1.22658 1.56922C1.02 1.60023 0.835687 1.67584 0.703728 1.7837C0.571769 1.89156 0.499952 2.02531 0.5 2.16312C0.5 8.67593 8.62123 13.9446 18.6253 13.9446C18.8374 13.9447 19.0433 13.898 19.2093 13.8122C19.3753 13.7265 19.4917 13.6066 19.5394 13.4723L20.4769 10.8316C20.5253 10.6917 20.4971 10.5451 20.3972 10.4172C20.2973 10.2893 20.132 10.1881 19.9296 10.1308Z" fill="#D9D9D9"/>
</svg>
