<svg width="21" height="13" viewBox="0 0 21 13" fill="none" xmlns="http://www.w3.org/2000/svg">
<path d="M19.9296 9.18626L15.5546 7.96749C15.3677 7.91572 15.1599 7.90481 14.9627 7.9364C14.7654 7.968 14.5893 8.0404 14.4608 8.14269L12.5233 9.68139C9.48248 8.74948 7.03535 7.15885 5.60165 5.18234L7.96888 3.92294C8.12657 3.83958 8.23818 3.72509 8.28681 3.59681C8.33545 3.46853 8.31846 3.33344 8.23841 3.21199L6.36338 0.368194C6.27553 0.23728 6.12016 0.130393 5.92406 0.065964C5.72796 0.00153493 5.50341 -0.0163977 5.28914 0.0152583L1.22658 0.624644C1.02 0.655651 0.835687 0.731256 0.703728 0.839118C0.571769 0.946981 0.499952 1.08073 0.5 1.21854C0.5 7.73135 8.62123 13 18.6253 13C18.8374 13.0001 19.0433 12.9534 19.2093 12.8677C19.3753 12.7819 19.4917 12.662 19.5394 12.5277L20.4769 9.88705C20.5253 9.7471 20.4971 9.60057 20.3972 9.47266C20.2973 9.34475 20.132 9.24348 19.9296 9.18626Z" fill="#D9D9D9"/>
</svg>
