<svg width="21" height="11" viewBox="0 0 21 11" fill="none" xmlns="http://www.w3.org/2000/svg">
<path d="M7.375 4.64066H13.625C13.9703 4.64066 14.25 4.48684 14.25 4.29691V3.95317C14.25 3.76325 13.9703 3.60942 13.625 3.60942H7.375C7.02969 3.60942 6.75 3.76325 6.75 3.95317V4.29691C6.75 4.48684 7.02969 4.64066 7.375 4.64066ZM6.75 6.3594C6.75 6.54932 7.02969 6.70315 7.375 6.70315H13.625C13.9703 6.70315 14.25 6.54932 14.25 6.3594V6.01565C14.25 5.82573 13.9703 5.67191 13.625 5.67191H7.375C7.02969 5.67191 6.75 5.82573 6.75 6.01565V6.3594ZM10.5 8.96179C9.85859 8.96179 9.21719 8.85308 8.66953 8.63544L0.5 5.3896V9.96876C0.5 10.5383 1.33945 11 2.375 11H18.625C19.6605 11 20.5 10.5383 20.5 9.96876V5.3896L12.3305 8.63544C11.7828 8.85286 11.1414 8.96179 10.5 8.96179ZM19.7816 3.50092C19.4359 3.35182 19.1082 3.21153 18.625 3.01087V2.06255C18.625 1.49301 17.7855 1.03131 16.75 1.03131H13.7207C13.602 0.984045 13.4914 0.939787 13.3676 0.890373C12.7109 0.626762 11.4063 -0.0074532 10.5 6.62869e-05C9.59375 -0.0074532 8.28945 0.626762 7.63242 0.890373C7.50859 0.939787 7.39805 0.984045 7.2793 1.03131H4.25C3.21445 1.03131 2.375 1.49301 2.375 2.06255V3.01087C1.8918 3.21132 1.56406 3.35182 1.21836 3.50092C0.994593 3.59737 0.813639 3.72055 0.689185 3.86113C0.564732 4.00171 0.500039 4.15602 0.5 4.31238L0.5 4.54119L4.25 6.03112V2.06255H16.75V6.03112L20.5 4.54119V4.31238C20.5 3.99571 20.2352 3.69643 19.7816 3.50092Z" fill="#D9D9D9"/>
</svg>
