<svg width="20" height="12" viewBox="0 0 20 12" fill="none" xmlns="http://www.w3.org/2000/svg">
<path d="M6.875 5.07938H13.125C13.4703 5.07938 13.75 4.92556 13.75 4.73564V4.39189C13.75 4.20197 13.4703 4.04814 13.125 4.04814H6.875C6.52969 4.04814 6.25 4.20197 6.25 4.39189V4.73564C6.25 4.92556 6.52969 5.07938 6.875 5.07938ZM6.25 6.79812C6.25 6.98804 6.52969 7.14187 6.875 7.14187H13.125C13.4703 7.14187 13.75 6.98804 13.75 6.79812V6.45437C13.75 6.26445 13.4703 6.11063 13.125 6.11063H6.875C6.52969 6.11063 6.25 6.26445 6.25 6.45437V6.79812ZM10 9.40051C9.35859 9.40051 8.71719 9.2918 8.16953 9.07416L0 5.82832V10.4075C0 10.977 0.839453 11.4387 1.875 11.4387H18.125C19.1605 11.4387 20 10.977 20 10.4075V5.82832L11.8305 9.07416C11.2828 9.29158 10.6414 9.40051 10 9.40051ZM19.2816 3.93964C18.9359 3.79054 18.6082 3.65025 18.125 3.44959V2.50127C18.125 1.93173 17.2855 1.47003 16.25 1.47003H13.2207C13.102 1.42277 12.9914 1.37851 12.8676 1.32909C12.2109 1.06548 10.9063 0.431268 10 0.438787C9.09375 0.431268 7.78945 1.06548 7.13242 1.32909C7.00859 1.37851 6.89805 1.42277 6.7793 1.47003H3.75C2.71445 1.47003 1.875 1.93173 1.875 2.50127V3.44959C1.3918 3.65004 1.06406 3.79054 0.718359 3.93964C0.494593 4.03609 0.313639 4.15927 0.189185 4.29985C0.0647315 4.44043 3.8508e-05 4.59474 0 4.7511L0 4.97991L3.75 6.46984V2.50127H16.25V6.46984L20 4.97991V4.7511C20 4.43443 19.7352 4.13515 19.2816 3.93964Z" fill="#D9D9D9"/>
</svg>
